<svg width="408" height="406" viewBox="0 0 408 406" fill="none" xmlns="http://www.w3.org/2000/svg">
<g clip-path="url(#clip0_110_3900)">
<path d="M137.84 21.4386C144.689 23.2513 151.884 23.311 158.762 21.6122C165.64 19.9135 171.981 16.5107 177.201 11.7172C184.524 4.99165 194.1 1.26025 204.038 1.26025C213.976 1.26025 223.553 4.99165 230.875 11.7172C236.095 16.5128 242.435 19.9168 249.314 21.6157C256.192 23.3146 263.388 23.2536 270.236 21.4386C279.831 18.8876 290.033 20.0353 298.823 24.6546C307.613 29.2738 314.35 37.0279 317.7 46.3819C320.096 53.0517 324.132 59.0106 329.434 63.7094C334.735 68.4082 341.134 71.6958 348.038 73.2695C357.723 75.4749 366.228 81.2387 371.869 89.4204C377.511 97.6021 379.879 107.606 378.505 117.451C377.535 124.475 378.345 131.631 380.859 138.26C383.374 144.889 387.512 150.78 392.895 155.391C400.44 161.851 405.291 170.909 406.488 180.776C407.685 190.642 405.142 200.599 399.361 208.68C395.237 214.442 392.628 221.151 391.775 228.188C390.922 235.225 391.852 242.364 394.479 248.947C398.179 258.2 398.27 268.506 394.733 277.822C391.197 287.139 384.291 294.784 375.387 299.243C369.079 302.418 363.668 307.126 359.649 312.936C355.63 318.747 353.132 325.474 352.383 332.501C351.349 342.386 346.654 351.525 339.221 358.117C331.789 364.709 322.159 368.275 312.23 368.112C305.165 368.005 298.187 369.675 291.935 372.97C285.683 376.264 280.358 381.077 276.447 386.967C270.937 395.227 262.536 401.121 252.899 403.489C243.262 405.857 233.088 404.526 224.383 399.758C218.171 396.348 211.2 394.56 204.115 394.56C197.03 394.56 190.059 396.348 183.847 399.758C175.138 404.527 164.96 405.859 155.319 403.491C145.678 401.124 137.272 395.229 131.757 386.967C127.848 381.075 122.523 376.261 116.271 372.967C110.018 369.672 103.039 368.003 95.9744 368.112C86.0117 368.332 76.3313 364.791 68.8583 358.192C61.3852 351.594 56.6671 342.422 55.6422 332.501C54.8914 325.474 52.3925 318.748 48.3739 312.938C44.3553 307.128 38.9454 302.42 32.639 299.243C23.7639 294.782 16.8851 287.148 13.3637 277.853C9.84235 268.559 9.93487 258.279 13.623 249.049C16.2653 242.451 17.2008 235.291 16.343 228.234C15.4852 221.178 12.8617 214.452 8.71567 208.68C2.93442 200.599 0.391204 190.642 1.58846 180.776C2.78571 170.909 7.63636 161.851 15.1821 155.391C20.5618 150.779 24.6967 144.887 27.2067 138.258C29.7168 131.628 30.5213 124.473 29.5463 117.451C28.1807 107.596 30.5617 97.5862 36.218 89.4042C41.8743 81.2221 50.3936 75.4639 60.0895 73.2695C66.9942 71.6958 73.3923 68.4082 78.6942 63.7094C83.9961 59.0106 88.0313 53.0517 90.4281 46.3819C93.7827 37.0426 100.512 29.3008 109.289 24.6833C118.066 20.0659 128.253 18.9081 137.84 21.4386Z" fill="white" stroke="#062343"/>
<path d="M178.249 24.3548C185.275 17.9008 194.464 14.3198 204 14.3198C213.536 14.3198 222.725 17.9008 229.751 24.3548C234.454 28.6882 240.171 31.7679 246.374 33.3102C252.578 34.8526 259.07 34.8081 265.252 33.1809C274.471 30.7364 284.271 31.8428 292.714 36.2814C301.156 40.7199 307.628 48.1676 310.85 57.1521C313.012 63.1694 316.653 68.5452 321.437 72.7836C326.221 77.0221 331.994 79.9868 338.224 81.4046C347.52 83.5237 355.682 89.0582 361.097 96.9128C366.511 104.767 368.783 114.37 367.463 123.821C366.578 130.159 367.304 136.618 369.574 142.601C371.843 148.584 375.583 153.898 380.447 158.051C387.69 164.257 392.343 172.956 393.488 182.429C394.633 191.902 392.187 201.461 386.633 209.217C382.908 214.408 380.545 220.451 379.759 226.794C378.973 233.136 379.79 239.574 382.134 245.519C385.666 254.381 385.752 264.247 382.373 273.17C378.995 282.092 372.398 289.424 363.885 293.717C358.174 296.586 353.278 300.849 349.646 306.111C346.014 311.373 343.765 317.466 343.105 323.828C342.141 333.316 337.658 342.097 330.541 348.439C323.425 354.781 314.192 358.222 304.665 358.083C298.277 357.949 291.959 359.425 286.291 362.375C280.623 365.326 275.787 369.656 272.23 374.968C266.951 382.913 258.887 388.588 249.631 390.871C240.374 393.155 230.599 391.88 222.236 387.299C216.63 384.227 210.341 382.616 203.949 382.616C197.557 382.616 191.268 384.227 185.661 387.299C177.299 391.88 167.523 393.155 158.267 390.871C149.011 388.588 140.947 382.913 135.668 374.968C132.12 369.671 127.301 365.35 121.652 362.4C116.003 359.45 109.706 357.966 103.335 358.083C93.8027 358.25 84.5544 354.831 77.418 348.502C70.2816 342.174 65.7763 333.397 64.7923 323.905C64.1375 317.545 61.8929 311.453 58.2657 306.19C54.6386 300.928 49.7456 296.664 44.0383 293.794C35.5063 289.499 28.8946 282.156 25.5108 273.217C22.1269 264.279 22.2171 254.394 25.7636 245.519C28.141 239.582 28.9845 233.141 28.2161 226.791C27.4477 220.441 25.0922 214.388 21.3674 209.191C15.8159 201.432 13.3738 191.872 14.5237 182.398C15.6737 172.925 20.3321 164.227 27.5783 158.025C32.4343 153.866 36.1665 148.551 38.4311 142.569C40.6957 136.587 41.4198 130.131 40.5367 123.795C39.2296 114.343 41.51 104.743 46.9277 96.8904C52.3455 89.038 60.5071 83.5035 69.8019 81.3791C76.0271 79.9575 81.7948 76.9909 86.574 72.7527C91.3532 68.5145 94.9902 63.1407 97.1502 57.1265C100.381 48.1503 106.856 40.7121 115.297 36.2793C123.738 31.8465 133.532 30.7411 142.748 33.1809C148.924 34.8181 155.412 34.8749 161.615 33.346C167.819 31.8171 173.539 28.7518 178.249 24.4316V24.3548Z" fill="#DAEAFC"/>
</g>
<defs>
<clipPath id="clip0_110_3900">
<rect width="408" height="406" fill="white"/>
</clipPath>
</defs>
</svg>
