<svg width="723" height="176" viewBox="0 0 723 176" fill="none" xmlns="http://www.w3.org/2000/svg">
    <path d="M40.1271 5.54161C40.1271 5.54161 68.0171 8.83161 84.0471 5.54161C84.0471 5.54161 86.4671 2.6816 81.6371 2.9016C76.8071 3.1216 37.4871 2.46161 40.1271 5.54161Z" fill="#1AA58C" stroke="#1D1D1B" stroke-miterlimit="10"/>
    <path d="M100.737 10.6617C97.1072 4.01166 84.6572 7.00165 84.6572 7.00165C80.9872 11.0017 82.5472 38.3717 82.5472 38.3717C90.0772 39.5017 94.0872 37.4916 94.0872 37.4916C108.507 30.8416 104.367 17.3017 100.737 10.6617ZM92.1771 33.2116C92.1771 33.2116 87.0172 34.5316 84.6572 30.8016C82.2972 27.0716 84.6572 14.9816 84.6572 14.9816C84.6572 14.9816 91.2971 8.17166 96.7871 12.7917C102.277 17.4117 103.157 29.9216 92.1771 33.2116Z" fill="#DCF9F4" stroke="#1D1D1B" stroke-miterlimit="10"/>
    <path d="M40.127 5.54163V41.7516C40.127 41.7516 55.537 52.6616 84.657 41.7516V4.15161C84.657 4.15161 61.397 9.33163 40.127 5.54163Z" fill="#DCF9F4" stroke="#1D1D1B" stroke-miterlimit="10"/>
    <path d="M176.575 3.37911C177.325 2.95911 185.235 -1.29089 193.465 2.68911C202.215 6.91911 203.405 16.6291 203.535 17.8691C203.887 21.4467 203.269 25.0532 201.745 28.3091C200.337 30.9833 198.425 33.3602 196.115 35.3091C192.584 38.263 188.281 40.1438 183.715 40.7291C184.165 38.9091 184.605 37.0791 185.045 35.2591C186.706 35.0512 188.323 34.5785 189.835 33.8591C190.345 33.6091 197.535 30.0091 198.835 22.0591C199.282 19.0236 198.834 15.9235 197.545 13.1391C196.433 10.6838 194.737 8.53798 192.605 6.88912C191.635 6.18875 190.553 5.65789 189.405 5.31911C186.602 4.5701 183.623 4.86876 181.025 6.15911L176.575 3.37911Z" fill="#FFF2D6" stroke="#1D1D1B" stroke-miterlimit="10"/>
    <path d="M150.355 4.31911C150.355 4.31911 174.655 5.31911 179.285 4.31911C183.915 3.31911 149.115 2.83911 150.355 4.31911Z" fill="#704D00" stroke="#1D1D1B" stroke-miterlimit="10"/>
    <path d="M174.525 48.4391C178.329 47.2871 181.609 44.8385 183.795 41.5191C184.726 39.9365 185.376 38.2041 185.715 36.3991C188.585 23.8191 183.715 12.0591 182.355 9.15915C181.604 7.47805 180.763 5.83897 179.835 4.24915C177.105 4.39915 174.315 4.51914 171.465 4.58914C166.215 4.69914 158.835 4.69915 150.295 4.24915C150.295 4.24915 141.635 14.0591 144.985 36.2491C144.985 36.2491 147.175 47.2491 155.835 48.4891L174.525 48.4391Z" fill="#FFF2D6" stroke="#1D1D1B" stroke-miterlimit="10"/>
    <path d="M299.869 9.64999C294.869 6.86999 287.199 11.96 287.199 11.96L288.199 40.19C292.029 38.19 290.519 35.19 297.139 31.13C299.08 29.9524 300.71 28.3277 301.895 26.3915C303.08 24.4553 303.784 22.2638 303.949 20C303.949 20 304.869 12.44 299.869 9.64999ZM290.779 32.29L288.249 20.1L290.779 18.24C290.779 18.24 293.589 10.12 297.779 13.83C301.969 17.54 300.069 27.88 290.809 32.29H290.779Z" fill="#7F9EB2" stroke="#1D1D1B" stroke-miterlimit="10"/>
    <path d="M247.649 3.5H287.119C287.119 3.5 288.629 5.00999 286.309 6.39999C286.309 6.39999 284.799 6.74999 286.769 10.93C288.739 15.11 297.219 36.82 281.429 45.99H251.009C248.481 43.8625 246.499 41.1614 245.227 38.1119C243.956 35.0625 243.432 31.7531 243.699 28.46C244.35 21.688 246.199 15.0854 249.159 8.95999C249.159 8.95999 250.159 6.86999 248.689 6.39999C247.219 5.92999 247.649 3.5 247.649 3.5Z" fill="#7F9EB2" stroke="#1D1D1B" stroke-miterlimit="10"/>
    <path d="M350.966 9.39555C356.656 9.51555 390.566 10.1855 396.876 8.20555C397.326 8.06555 398.406 7.72555 398.376 7.42555C398.286 6.62555 344.376 8.42556 344.376 9.09556C344.376 9.23556 345.526 9.37555 350.966 9.39555Z" fill="#0F6152" stroke="#1D1D1B" stroke-miterlimit="10"/>
    <path d="M390.277 26.9356C390.277 26.9356 393.367 26.9356 394.687 26.9356C396.007 26.9356 392.607 30.3956 394.687 31.3856C396.767 32.3756 414.277 16.3856 408.477 11.0256C402.677 5.66556 392.387 12.0256 392.387 12.0256C392.387 12.0256 391.387 18.5856 394.687 18.0256C397.987 17.4656 398.847 10.3656 403.327 13.0256C407.807 15.6856 401.327 25.9456 395.017 23.3156C388.707 20.6856 390.277 26.9356 390.277 26.9356Z" fill="#1AA58C" stroke="#1D1D1B" stroke-miterlimit="10"/>
    <path d="M358.377 36.5756C360.437 36.8456 363.377 37.1555 366.857 37.2955C373.327 37.5555 376.557 37.6856 379.857 36.5756C384.239 34.9941 387.984 32.024 390.522 28.1175C393.06 24.211 394.252 19.5821 393.917 14.9355C393.719 14.5505 393.615 14.1236 393.615 13.6906C393.615 13.2575 393.719 12.8306 393.917 12.4456C394.117 12.1456 394.187 11.7555 395.557 11.3755C396.408 11.1456 397.169 10.6606 397.737 9.98553C398.167 9.38931 398.37 8.65831 398.307 7.92554C394.827 8.43554 389.887 9.04556 383.927 9.38556C378.687 9.67556 374.787 9.64554 370.137 9.58554C363.247 9.48554 354.537 9.33556 344.337 9.07556C344.115 9.38363 344.003 9.75651 344.017 10.1356C344.017 10.7156 344.437 11.4556 345.817 12.1356C348.657 13.5556 347.287 15.4156 347.287 15.4156L347.077 19.4156C347.014 21.2133 347.24 23.0095 347.747 24.7355C349.947 32.1755 356.617 35.7056 358.377 36.5756Z" fill="#84ECD9" stroke="#1D1D1B" stroke-miterlimit="10"/>
    <path d="M350.447 33.0655C350.447 33.0655 349.347 28.5855 352.637 29.3455C355.927 30.1055 360.077 36.7855 357.007 39.5255L356.897 41.2755H350.707C350.557 41.1155 349.507 39.9355 349.887 38.8855C349.986 38.6362 350.135 38.4094 350.324 38.2186C350.513 38.0279 350.738 37.8772 350.987 37.7755L353.287 36.5756C352.591 36.2253 351.979 35.7311 351.489 35.126C350.999 34.5208 350.644 33.8185 350.447 33.0655Z" fill="#1AA58C" stroke="#1D1D1B" stroke-miterlimit="10"/>
    <path d="M379.777 42.2655H385.247C385.247 42.2655 387.767 39.5255 383.167 38.6555C383.167 38.6555 389.407 31.8656 385.167 31.0956C380.927 30.3256 376.417 33.8055 376.627 35.2655C376.837 36.7255 377.697 41.7155 379.777 42.2655Z" fill="#1AA58C" stroke="#1D1D1B" stroke-miterlimit="10"/>
    <path d="M451.09 1.76508H451.93C463.71 2.08508 485.5 3.12509 497.3 1.61509C497.73 1.61509 498.23 1.49507 498.22 1.41507C498.22 0.695075 450.45 1.10508 450.44 1.63508C450.44 1.70508 450.81 1.74508 451.09 1.76508Z" fill="#7CB5F3" stroke="#1D1D1B" stroke-miterlimit="10"/>
    <path d="M459.749 47.075C459.749 47.075 470.499 50.195 485.059 47.075L483.669 41.795H462.169L459.749 47.075Z" fill="#2C88EC" stroke="#1D1D1B" stroke-miterlimit="10"/>
    <path d="M511.69 7.57504C511.69 7.57504 508.86 1.00503 497.78 7.25503L483.67 40.915C483.67 40.915 487.23 39.585 496.99 31.605C506.75 23.625 516.91 17.945 511.69 7.57504ZM507.15 18.465C502 26.255 491.97 30.115 491.97 30.115C491.97 30.115 497.17 21.065 497.39 13.755C497.61 6.44503 505.8 8.02505 505.8 8.02505C505.8 8.02505 512.3 10.665 507.15 18.465Z" fill="#2C88EC" stroke="#1D1D1B" stroke-miterlimit="10"/>
    <path d="M450.38 1.99506C450.38 1.99506 445.25 24.705 462.17 42.295H483.67C483.67 42.295 495.56 23.4751 498.14 1.99506C498.14 1.99506 458.18 3.44506 450.38 1.99506Z" fill="#7CB5F3" stroke="#1D1D1B" stroke-miterlimit="10"/>
    <path d="M585.745 46.2H563.485V48.49H585.745V46.2Z" fill="#84ECD9" stroke="#1D1D1B" stroke-miterlimit="10"/>
    <path d="M595.925 4.21007H606.925C608.043 4.15498 609.149 4.46054 610.08 5.08171C611.011 5.70288 611.717 6.60677 612.095 7.66005V27.5C612.095 27.5 611.515 32.3201 605.555 32.5501C599.595 32.7801 594.205 32.5501 594.205 32.5501V29.5501L604.975 29.66C604.975 29.66 608.875 29.1901 608.765 26.0401L608.875 9.82005C608.875 9.82005 609.225 6.49007 606.815 6.49007C604.405 6.49007 595.885 6.37004 595.885 6.37004L595.925 4.21007Z" fill="#84ECD9" stroke="#1D1D1B" stroke-miterlimit="10"/>
    <path d="M553.395 1C553.395 1 593.665 1.46 595.845 1C595.845 1 597.215 40 588.845 46.2H561.115C561.115 46.2 551.325 44.94 553.395 1Z" fill="#84ECD9" stroke="#1D1D1B" stroke-miterlimit="10"/>
    <path d="M706.635 25.0478C706.635 25.0478 706.875 14.0478 701.635 9.24783C696.395 4.44783 689.365 7.32783 689.345 7.33783V3.01782C677.695 4.17782 652.165 2.71783 652.165 2.71783L652.095 46.3578C678.665 50.0178 689.035 46.3578 689.035 46.3578V40.8378C692.235 41.8343 695.614 42.1176 698.935 41.6678C707.925 38.7978 706.635 25.0478 706.635 25.0478ZM703.045 30.0478C702.762 31.7378 702.303 33.3935 701.675 34.9878C701.083 36.2061 700.144 37.222 698.975 37.9078C697.474 38.637 695.789 38.9049 694.135 38.6778C692.427 38.6082 690.739 38.2708 689.135 37.6778L689.315 12.5478C690.22 11.2938 691.574 10.4376 693.095 10.1578C694.835 10.0547 696.55 10.6038 697.905 11.6978C703.005 15.2978 703.325 23.0578 703.365 24.5678C703.463 26.3874 703.356 28.2122 703.045 30.0078V30.0478Z" fill="#FFB717" stroke="#1D1D1B" stroke-miterlimit="10"/>
    <path d="M688.635 2.78785C695.635 1.94785 650.095 0.677817 652.255 2.25782C652.255 2.25782 681.665 3.63785 688.635 2.78785Z" fill="#FFB717" stroke="#1D1D1B" stroke-miterlimit="10"/>
    <path d="M96.2379 73.14C91.2379 70.36 83.5679 75.45 83.5679 75.45L84.5679 103.68C88.3979 101.68 86.8879 98.68 93.5079 94.62C95.4484 93.4424 97.0791 91.8177 98.2637 89.8815C99.4484 87.9453 100.153 85.7538 100.318 83.49C100.318 83.49 101.238 75.93 96.2379 73.14ZM87.1479 95.78L84.6179 83.59L87.1479 81.73C87.1479 81.73 89.9579 73.61 94.1479 77.32C98.3379 81.03 96.4379 91.37 87.1779 95.78H87.1479Z" fill="white" stroke="#1D1D1B" stroke-miterlimit="10"/>
    <path d="M44.018 66.99H83.488C83.488 66.99 84.998 68.5 82.678 69.89C82.678 69.89 81.168 70.24 83.138 74.42C85.108 78.6 93.588 100.31 77.798 109.48H47.378C44.8502 107.352 42.8677 104.651 41.5961 101.602C40.3245 98.5524 39.8005 95.2431 40.068 91.95C40.719 85.178 42.5678 78.5754 45.528 72.45C45.528 72.45 46.528 70.36 45.058 69.89C43.588 69.42 44.018 66.99 44.018 66.99Z" fill="white" stroke="#1D1D1B" stroke-miterlimit="10"/>
    <path d="M147.335 72.8856C153.025 73.0056 186.935 73.6756 193.245 71.6956C193.695 71.5556 194.775 71.2156 194.745 70.9156C194.655 70.1156 140.745 71.9156 140.745 72.5856C140.745 72.7256 141.895 72.8656 147.335 72.8856Z" fill="#2A3B46" stroke="#1D1D1B" stroke-miterlimit="10"/>
    <path d="M186.646 90.4256C186.646 90.4256 189.736 90.4256 191.056 90.4256C192.376 90.4256 188.976 93.8856 191.056 94.8756C193.136 95.8656 210.646 79.8756 204.846 74.5156C199.046 69.1556 188.756 75.5156 188.756 75.5156C188.756 75.5156 187.756 82.0756 191.056 81.5156C194.356 80.9556 195.216 73.8556 199.696 76.5156C204.176 79.1756 197.696 89.4356 191.386 86.8056C185.076 84.1756 186.646 90.4256 186.646 90.4256Z" fill="#7F9EB2" stroke="#1D1D1B" stroke-miterlimit="10"/>
    <path d="M154.746 100.066C156.806 100.336 159.746 100.646 163.226 100.786C169.696 101.046 172.926 101.176 176.226 100.066C180.608 98.4841 184.353 95.514 186.891 91.6075C189.429 87.701 190.621 83.0721 190.286 78.4256C190.087 78.0405 189.984 77.6137 189.984 77.1806C189.984 76.7475 190.087 76.3207 190.286 75.9356C190.486 75.6356 190.556 75.2456 191.926 74.8656C192.777 74.6357 193.538 74.1506 194.106 73.4756C194.536 72.8794 194.738 72.1484 194.676 71.4156C191.196 71.9256 186.256 72.5356 180.296 72.8756C175.056 73.1656 171.156 73.1356 166.506 73.0756C159.616 72.9756 150.906 72.8256 140.706 72.5656C140.484 72.8737 140.372 73.2466 140.386 73.6256C140.386 74.2056 140.806 74.9456 142.186 75.6256C145.026 77.0456 143.656 78.9056 143.656 78.9056L143.446 82.9056C143.383 84.7034 143.609 86.4996 144.116 88.2256C146.316 95.6656 152.986 99.1956 154.746 100.066Z" fill="#DAEAFC" stroke="#1D1D1B" stroke-miterlimit="10"/>
    <path d="M146.815 96.5556C146.815 96.5556 145.715 92.0756 149.005 92.8356C152.295 93.5956 156.445 100.276 153.375 103.016L153.265 104.766H147.075C146.925 104.606 145.875 103.426 146.255 102.376C146.355 102.126 146.503 101.899 146.692 101.709C146.881 101.518 147.107 101.367 147.355 101.266L149.655 100.066C148.96 99.7153 148.347 99.2212 147.858 98.616C147.368 98.0109 147.013 97.3086 146.815 96.5556Z" fill="#7F9EB2" stroke="#1D1D1B" stroke-miterlimit="10"/>
    <path d="M176.146 105.756H181.616C181.616 105.756 184.136 103.016 179.536 102.146C179.536 102.146 185.776 95.3556 181.536 94.5856C177.296 93.8156 172.786 97.2956 172.996 98.7556C173.206 100.216 174.066 105.206 176.146 105.756Z" fill="#7F9EB2" stroke="#1D1D1B" stroke-miterlimit="10"/>
    <path d="M278.378 66.8691C279.128 66.4491 287.038 62.1991 295.268 66.1791C304.018 70.4091 305.208 80.1191 305.338 81.3591C305.69 84.9367 305.072 88.5432 303.548 91.7991C302.139 94.4733 300.228 96.8502 297.918 98.7991C294.387 101.753 290.084 103.634 285.518 104.219C285.968 102.399 286.408 100.569 286.848 98.7491C288.509 98.5411 290.126 98.0685 291.638 97.3491C292.148 97.0991 299.338 93.4991 300.638 85.5491C301.085 82.5136 300.637 79.4135 299.348 76.6291C298.236 74.1738 296.54 72.028 294.408 70.3791C293.437 69.6787 292.355 69.1479 291.208 68.8091C288.405 68.0601 285.426 68.3587 282.828 69.6491L278.378 66.8691Z" fill="#84ECD9" stroke="#1D1D1B" stroke-miterlimit="10"/>
    <path d="M252.158 67.8091C252.158 67.8091 276.458 68.8091 281.088 67.8091C285.718 66.8091 250.918 66.3291 252.158 67.8091Z" fill="#84ECD9" stroke="#1D1D1B" stroke-miterlimit="10"/>
    <path d="M276.328 111.929C280.132 110.777 283.412 108.329 285.598 105.009C286.529 103.426 287.179 101.694 287.518 99.8891C290.388 87.3091 285.518 75.5491 284.158 72.6491C283.407 70.968 282.566 69.329 281.638 67.7391C278.908 67.8891 276.118 68.0091 273.268 68.0791C268.018 68.1891 260.638 68.1891 252.098 67.7391C252.098 67.7391 243.438 77.5491 246.788 99.7391C246.788 99.7391 248.978 110.739 257.638 111.979L276.328 111.929Z" fill="#84ECD9" stroke="#1D1D1B" stroke-miterlimit="10"/>
    <path d="M378.072 109.69H355.812V111.98H378.072V109.69Z" fill="#062343" stroke="#1D1D1B" stroke-miterlimit="10"/>
    <path d="M388.252 67.7001H399.252C400.369 67.645 401.475 67.9505 402.406 68.5717C403.337 69.1929 404.044 70.0968 404.422 71.15V90.99C404.422 90.99 403.842 95.8101 397.882 96.0401C391.922 96.2701 386.532 96.0401 386.532 96.0401V93.0401L397.302 93.15C397.302 93.15 401.202 92.68 401.092 89.53L401.202 73.31C401.202 73.31 401.552 69.9801 399.142 69.9801C396.732 69.9801 388.212 69.86 388.212 69.86L388.252 67.7001Z" fill="#062343" stroke="#1D1D1B" stroke-miterlimit="10"/>
    <path d="M345.721 64.49C345.721 64.49 385.992 64.95 388.172 64.49C388.172 64.49 389.542 103.49 381.172 109.69H353.441C353.441 109.69 343.651 108.43 345.721 64.49Z" fill="#062343" stroke="#1D1D1B" stroke-miterlimit="10"/>
    <path d="M444.549 69.0316C444.549 69.0316 472.439 72.3216 488.469 69.0316C488.469 69.0316 490.889 66.1716 486.059 66.3916C481.229 66.6116 441.909 65.9516 444.549 69.0316Z" fill="#3D2A00" stroke="#1D1D1B" stroke-miterlimit="10"/>
    <path d="M505.159 74.1516C501.529 67.5016 489.079 70.4916 489.079 70.4916C485.409 74.4916 486.969 101.862 486.969 101.862C494.499 102.992 498.509 100.982 498.509 100.982C512.929 94.3316 508.789 80.7916 505.159 74.1516ZM496.599 96.7016C496.599 96.7016 491.439 98.0216 489.079 94.2916C486.719 90.5616 489.079 78.4716 489.079 78.4716C489.079 78.4716 495.719 71.6617 501.209 76.2817C506.699 80.9017 507.579 93.4116 496.599 96.7016Z" fill="#704D00" stroke="#1D1D1B" stroke-miterlimit="10"/>
    <path d="M444.549 69.0316V105.242C444.549 105.242 459.959 116.152 489.079 105.242V67.6416C489.079 67.6416 465.819 72.8216 444.549 69.0316Z" fill="#704D00" stroke="#1D1D1B" stroke-miterlimit="10"/>
    <path d="M550.077 65.2551H550.917C562.697 65.5751 584.487 66.6151 596.287 65.1051C596.717 65.1051 597.217 64.9851 597.207 64.9051C597.207 64.1851 549.437 64.5951 549.427 65.1251C549.427 65.1951 549.797 65.2351 550.077 65.2551Z" fill="#6A6A6A" stroke="#1D1D1B" stroke-miterlimit="10"/>
    <path d="M558.737 110.565C558.737 110.565 569.487 113.685 584.047 110.565L582.657 105.285H561.157L558.737 110.565Z" fill="#704D00" stroke="#1D1D1B" stroke-miterlimit="10"/>    
    <path d="M610.677 71.065C610.677 71.065 607.847 64.495 596.767 70.745L582.657 104.405C582.657 104.405 586.217 103.075 595.977 95.095C605.737 87.115 615.897 81.435 610.677 71.065ZM606.137 81.955C600.987 89.745 590.957 93.605 590.957 93.605C590.957 93.605 596.157 84.555 596.377 77.245C596.597 69.935 604.787 71.515 604.787 71.515C604.787 71.515 611.287 74.155 606.137 81.955Z" fill="#704D00" stroke="#1D1D1B" stroke-miterlimit="10"/>
    <path d="M549.367 65.485C549.367 65.485 544.237 88.195 561.157 105.785H582.657C582.657 105.785 594.547 86.965 597.127 65.485C597.127 65.485 557.167 66.935 549.367 65.485Z" fill="white" stroke="#1D1D1B" stroke-miterlimit="10"/>
    <path d="M706.635 88.5379C706.635 88.5379 706.875 77.5379 701.635 72.7379C696.395 67.9379 689.365 70.8179 689.345 70.8279V66.5079C677.695 67.6679 652.165 66.2079 652.165 66.2079L652.095 109.848C678.665 113.508 689.035 109.848 689.035 109.848V104.328C692.235 105.324 695.614 105.608 698.935 105.158C707.925 102.288 706.635 88.5379 706.635 88.5379ZM703.045 93.5379C702.762 95.2279 702.303 96.8836 701.675 98.4779C701.083 99.6961 700.144 100.712 698.975 101.398C697.474 102.127 695.789 102.395 694.135 102.168C692.427 102.098 690.739 101.761 689.135 101.168L689.315 76.0379C690.22 74.7838 691.574 73.9277 693.095 73.6479C694.835 73.5448 696.55 74.0939 697.905 75.1879C703.005 78.7879 703.325 86.5479 703.365 88.0579C703.463 89.8775 703.356 91.7023 703.045 93.4979V93.5379Z" fill="#7CB5F3" stroke="#1D1D1B" stroke-miterlimit="10"/>
    <path d="M688.635 66.2779C695.635 65.4379 650.095 64.1679 652.255 65.7479C652.255 65.7479 681.665 67.1279 688.635 66.2779Z" fill="#7CB5F3" stroke="#1D1D1B" stroke-miterlimit="10"/>
    <path d="M40.1271 132.522C40.1271 132.522 68.0171 135.812 84.0471 132.522C84.0471 132.522 86.4671 129.662 81.6371 129.882C76.8071 130.102 37.4871 129.442 40.1271 132.522Z" fill="#062343" stroke="#1D1D1B" stroke-miterlimit="10"/>
    <path d="M100.737 137.642C97.1072 130.992 84.6572 133.982 84.6572 133.982C80.9872 137.982 82.5472 165.352 82.5472 165.352C90.0772 166.482 94.0872 164.472 94.0872 164.472C108.507 157.822 104.367 144.282 100.737 137.642ZM92.1771 160.192C92.1771 160.192 87.0172 161.512 84.6572 157.782C82.2972 154.052 84.6572 141.962 84.6572 141.962C84.6572 141.962 91.2971 135.152 96.7871 139.772C102.277 144.392 103.157 156.902 92.1771 160.192Z" fill="#2C88EC" stroke="#1D1D1B" stroke-miterlimit="10"/>
    <path d="M40.127 132.522V168.732C40.127 168.732 55.537 179.642 84.657 168.732V131.132C84.657 131.132 61.397 136.312 40.127 132.522Z" fill="#2C88EC" stroke="#1D1D1B" stroke-miterlimit="10"/>
    <path d="M198.754 152.028C198.754 152.028 198.994 141.028 193.754 136.228C188.514 131.428 181.484 134.308 181.464 134.318V129.998C169.814 131.158 144.284 129.698 144.284 129.698L144.214 173.338C170.784 176.998 181.154 173.338 181.154 173.338V167.818C184.354 168.814 187.733 169.098 191.054 168.648C200.044 165.778 198.754 152.028 198.754 152.028ZM195.164 157.028C194.882 158.718 194.422 160.374 193.794 161.968C193.202 163.186 192.263 164.202 191.094 164.888C189.593 165.617 187.908 165.885 186.254 165.658C184.546 165.588 182.859 165.251 181.254 164.658L181.434 139.528C182.339 138.274 183.694 137.418 185.214 137.138C186.954 137.035 188.669 137.584 190.024 138.678C195.124 142.278 195.444 150.038 195.484 151.548C195.582 153.367 195.475 155.192 195.164 156.988V157.028Z" fill="#1AA58C" stroke="#1D1D1B" stroke-miterlimit="10"/>
    <path d="M180.754 129.768C187.754 128.928 142.214 127.658 144.374 129.238C144.374 129.238 173.784 130.618 180.754 129.768Z" fill="#1AA58C" stroke="#1D1D1B" stroke-miterlimit="10"/>
    <path d="M295.056 136.63C290.056 133.85 282.386 138.94 282.386 138.94L283.386 167.17C287.216 165.17 285.706 162.17 292.326 158.11C294.267 156.932 295.898 155.308 297.082 153.372C298.267 151.435 298.971 149.244 299.136 146.98C299.136 146.98 300.056 139.42 295.056 136.63ZM285.966 159.27L283.436 147.08L285.966 145.22C285.966 145.22 288.776 137.1 292.966 140.81C297.156 144.52 295.256 154.86 285.996 159.27H285.966Z" fill="#FFB717" stroke="#1D1D1B" stroke-miterlimit="10"/>
    <path d="M242.837 130.48H282.307C282.307 130.48 283.817 131.99 281.497 133.38C281.497 133.38 279.987 133.73 281.957 137.91C283.927 142.09 292.407 163.8 276.617 172.97H246.197C243.669 170.843 241.686 168.141 240.415 165.092C239.143 162.042 238.619 158.733 238.887 155.44C239.538 148.668 241.386 142.065 244.347 135.94C244.347 135.94 245.347 133.85 243.877 133.38C242.407 132.91 242.837 130.48 242.837 130.48Z" fill="#FFB717" stroke="#1D1D1B" stroke-miterlimit="10"/>
    <path d="M371.563 130.359C372.313 129.939 380.223 125.689 388.453 129.669C397.203 133.899 398.393 143.609 398.523 144.849C398.876 148.427 398.258 152.033 396.733 155.289C395.325 157.963 393.413 160.34 391.103 162.289C387.573 165.243 383.27 167.124 378.703 167.709C379.153 165.889 379.593 164.059 380.033 162.239C381.695 162.031 383.312 161.558 384.823 160.839C385.333 160.589 392.523 156.989 393.823 149.039C394.271 146.004 393.823 142.903 392.533 140.119C391.422 137.664 389.726 135.518 387.593 133.869C386.623 133.169 385.541 132.638 384.393 132.299C381.591 131.55 378.611 131.849 376.013 133.139L371.563 130.359Z" fill="#DAEAFC" stroke="#1D1D1B" stroke-miterlimit="10"/>
    <path d="M345.343 131.299C345.343 131.299 369.643 132.299 374.273 131.299C378.903 130.299 344.103 129.819 345.343 131.299Z" fill="#DAEAFC" stroke="#1D1D1B" stroke-miterlimit="10"/>
    <path d="M369.513 175.419C373.317 174.267 376.597 171.819 378.783 168.499C379.715 166.916 380.365 165.184 380.703 163.379C383.573 150.799 378.703 139.039 377.343 136.139C376.593 134.458 375.752 132.819 374.823 131.229C372.093 131.379 369.303 131.499 366.453 131.569C361.203 131.679 353.823 131.679 345.283 131.229C345.283 131.229 336.623 141.039 339.973 163.229C339.973 163.229 342.163 174.229 350.823 175.469L369.513 175.419Z" fill="#DAEAFC" stroke="#1D1D1B" stroke-miterlimit="10"/>
    <path d="M445.571 136.376C451.261 136.496 485.171 137.166 491.481 135.186C491.931 135.046 493.011 134.706 492.981 134.406C492.891 133.606 438.981 135.406 438.981 136.076C438.981 136.216 440.131 136.356 445.571 136.376Z" fill="#704D00" stroke="#1D1D1B" stroke-miterlimit="10"/>
    <path d="M484.881 153.916C484.881 153.916 487.971 153.916 489.291 153.916C490.611 153.916 487.211 157.376 489.291 158.366C491.371 159.356 508.881 143.366 503.081 138.006C497.281 132.646 486.991 139.006 486.991 139.006C486.991 139.006 485.991 145.566 489.291 145.006C492.591 144.446 493.451 137.346 497.931 140.006C502.411 142.666 495.931 152.926 489.621 150.296C483.311 147.666 484.881 153.916 484.881 153.916Z" fill="#FFF2D6" stroke="#1D1D1B" stroke-miterlimit="10"/>
    <path d="M452.981 163.556C455.041 163.826 457.981 164.136 461.461 164.276C467.931 164.536 471.161 164.666 474.461 163.556C478.843 161.974 482.588 159.004 485.126 155.098C487.664 151.191 488.856 146.562 488.521 141.916C488.323 141.531 488.219 141.104 488.219 140.671C488.219 140.237 488.323 139.811 488.521 139.426C488.721 139.126 488.791 138.736 490.161 138.356C491.012 138.126 491.773 137.641 492.341 136.966C492.772 136.369 492.974 135.638 492.911 134.906C489.431 135.416 484.491 136.026 478.531 136.366C473.291 136.656 469.391 136.626 464.741 136.566C457.851 136.466 449.141 136.316 438.941 136.056C438.72 136.364 438.607 136.737 438.621 137.116C438.621 137.696 439.041 138.436 440.421 139.116C443.261 140.536 441.891 142.396 441.891 142.396L441.681 146.396C441.618 148.193 441.844 149.99 442.351 151.716C444.551 159.156 451.221 162.686 452.981 163.556Z" fill="#FFD370" stroke="#1D1D1B" stroke-miterlimit="10"/>
    <path d="M445.051 160.046C445.051 160.046 443.951 155.566 447.241 156.326C450.531 157.086 454.681 163.766 451.611 166.506L451.501 168.256H445.311C445.161 168.096 444.111 166.916 444.491 165.866C444.59 165.616 444.739 165.389 444.928 165.199C445.117 165.008 445.342 164.857 445.591 164.756L447.891 163.556C447.196 163.205 446.583 162.711 446.093 162.106C445.603 161.501 445.248 160.799 445.051 160.046Z" fill="#FFF2D6" stroke="#1D1D1B" stroke-miterlimit="10"/>
    <path d="M474.381 169.246H479.851C479.851 169.246 482.371 166.506 477.771 165.636C477.771 165.636 484.011 158.846 479.771 158.076C475.531 157.306 471.021 160.786 471.231 162.246C471.441 163.706 472.301 168.696 474.381 169.246Z" fill="#FFF2D6" stroke="#1D1D1B" stroke-miterlimit="10"/>
    <path d="M576.89 173.18H554.63V175.47H576.89V173.18Z" fill="#062343" stroke="#1D1D1B" stroke-miterlimit="10"/>
    <path d="M587.07 131.19H598.07C599.188 131.135 600.294 131.441 601.225 132.062C602.156 132.683 602.862 133.587 603.24 134.64V154.48C603.24 154.48 602.66 159.3 596.7 159.53C590.74 159.76 585.35 159.53 585.35 159.53V156.53L596.12 156.64C596.12 156.64 600.02 156.17 599.91 153.02L600.02 136.8C600.02 136.8 600.37 133.47 597.96 133.47C595.55 133.47 587.03 133.35 587.03 133.35L587.07 131.19Z" fill="#062343" stroke="#1D1D1B" stroke-miterlimit="10"/>
    <path d="M544.54 127.98C544.54 127.98 584.81 128.44 586.99 127.98C586.99 127.98 588.36 166.98 579.99 173.18H552.26C552.26 173.18 542.47 171.92 544.54 127.98Z" fill="#DAEAFC" stroke="#1D1D1B" stroke-miterlimit="10"/>
    <path d="M644.681 128.745H645.521C657.301 129.065 679.091 130.105 690.891 128.595C691.321 128.595 691.821 128.475 691.811 128.395C691.811 127.675 644.041 128.085 644.031 128.615C644.031 128.685 644.401 128.725 644.681 128.745Z" fill="#6A6A6A" stroke="#1D1D1B" stroke-miterlimit="10"/>
    <path d="M653.341 174.055C653.341 174.055 664.091 177.175 678.651 174.055L677.261 168.775H655.761L653.341 174.055Z" fill="black" stroke="#1D1D1B" stroke-miterlimit="10"/>
    <path d="M705.281 134.555C705.281 134.555 702.451 127.985 691.371 134.235L677.261 167.895C677.261 167.895 680.821 166.565 690.581 158.585C700.341 150.605 710.501 144.925 705.281 134.555ZM700.741 145.445C695.591 153.235 685.561 157.095 685.561 157.095C685.561 157.095 690.761 148.045 690.981 140.735C691.201 133.425 699.391 135.005 699.391 135.005C699.391 135.005 705.891 137.645 700.741 145.445Z" fill="black" stroke="#1D1D1B" stroke-miterlimit="10"/>
    <path d="M643.971 128.975C643.971 128.975 638.841 151.685 655.761 169.275H677.261C677.261 169.275 689.151 150.455 691.731 128.975C691.731 128.975 651.771 130.425 643.971 128.975Z" fill="white" stroke="#1D1D1B" stroke-miterlimit="10"/>
</svg>  