<svg width="723" height="176" viewBox="0 0 723 176" fill="none" xmlns="http://www.w3.org/2000/svg">
    <path d="M96.2379 9.64999C91.2379 6.86999 83.5679 11.96 83.5679 11.96L84.5679 40.19C88.3979 38.19 86.8879 35.19 93.5079 31.13C95.4484 29.9524 97.0791 28.3277 98.2637 26.3915C99.4484 24.4553 100.153 22.2638 100.318 20C100.318 20 101.238 12.44 96.2379 9.64999ZM87.1479 32.29L84.6179 20.1L87.1479 18.24C87.1479 18.24 89.9579 10.12 94.1479 13.83C98.3379 17.54 96.4379 27.88 87.1779 32.29H87.1479Z" fill="white" stroke="#1D1D1B" stroke-miterlimit="10"/>
    <path d="M44.018 3.5H83.488C83.488 3.5 84.998 5.00999 82.678 6.39999C82.678 6.39999 81.168 6.74999 83.138 10.93C85.108 15.11 93.588 36.82 77.798 45.99H47.378C44.8502 43.8625 42.8677 41.1614 41.5961 38.1119C40.3245 35.0625 39.8005 31.7531 40.068 28.46C40.719 21.688 42.5678 15.0854 45.528 8.95999C45.528 8.95999 46.528 6.86999 45.058 6.39999C43.588 5.92999 44.018 3.5 44.018 3.5Z" fill="white" stroke="#1D1D1B" stroke-miterlimit="10"/>
    <path d="M147.335 9.39561C153.025 9.51561 186.935 10.1856 193.245 8.20561C193.695 8.06561 194.775 7.72561 194.745 7.42561C194.655 6.62561 140.745 8.42562 140.745 9.09562C140.745 9.23562 141.895 9.37561 147.335 9.39561Z" fill="#2A3B46" stroke="#1D1D1B" stroke-miterlimit="10"/>
    <path d="M186.646 26.9357C186.646 26.9357 189.736 26.9357 191.056 26.9357C192.376 26.9357 188.976 30.3957 191.056 31.3857C193.136 32.3757 210.646 16.3857 204.846 11.0257C199.046 5.66568 188.756 12.0257 188.756 12.0257C188.756 12.0257 187.756 18.5857 191.056 18.0257C194.356 17.4657 195.216 10.3657 199.696 13.0257C204.176 15.6857 197.696 25.9457 191.386 23.3157C185.076 20.6857 186.646 26.9357 186.646 26.9357Z" fill="#7F9EB2" stroke="#1D1D1B" stroke-miterlimit="10"/>
    <path d="M154.746 36.5756C156.806 36.8456 159.746 37.1555 163.226 37.2955C169.696 37.5555 172.926 37.6856 176.226 36.5756C180.608 34.9941 184.353 32.024 186.891 28.1175C189.429 24.211 190.621 19.5821 190.286 14.9355C190.087 14.5505 189.984 14.1236 189.984 13.6906C189.984 13.2575 190.087 12.8306 190.286 12.4456C190.486 12.1456 190.556 11.7555 191.926 11.3755C192.777 11.1456 193.538 10.6606 194.106 9.98553C194.536 9.38931 194.738 8.65831 194.676 7.92554C191.196 8.43554 186.256 9.04556 180.296 9.38556C175.056 9.67556 171.156 9.64554 166.506 9.58554C159.616 9.48554 150.906 9.33556 140.706 9.07556C140.484 9.38363 140.372 9.75651 140.386 10.1356C140.386 10.7156 140.806 11.4556 142.186 12.1356C145.026 13.5556 143.656 15.4156 143.656 15.4156L143.446 19.4156C143.383 21.2133 143.609 23.0095 144.116 24.7355C146.316 32.1755 152.986 35.7056 154.746 36.5756Z" fill="#DAEAFC" stroke="#1D1D1B" stroke-miterlimit="10"/>
    <path d="M146.815 33.0656C146.815 33.0656 145.715 28.5856 149.005 29.3456C152.295 30.1056 156.445 36.7856 153.375 39.5256L153.265 41.2756H147.075C146.925 41.1156 145.875 39.9356 146.255 38.8856C146.355 38.6362 146.503 38.4094 146.692 38.2187C146.881 38.028 147.107 37.8773 147.355 37.7756L149.655 36.5756C148.96 36.2253 148.347 35.7312 147.858 35.1261C147.368 34.5209 147.013 33.8186 146.815 33.0656Z" fill="#7F9EB2" stroke="#1D1D1B" stroke-miterlimit="10"/>
    <path d="M176.146 42.2656H181.616C181.616 42.2656 184.136 39.5256 179.536 38.6556C179.536 38.6556 185.776 31.8656 181.536 31.0956C177.296 30.3256 172.786 33.8056 172.996 35.2656C173.206 36.7256 174.066 41.7156 176.146 42.2656Z" fill="#7F9EB2" stroke="#1D1D1B" stroke-miterlimit="10"/>
    <path d="M278.378 3.37905C279.128 2.95905 287.038 -1.29095 295.268 2.68905C304.018 6.91905 305.208 16.629 305.338 17.869C305.69 21.4467 305.072 25.0532 303.548 28.309C302.139 30.9832 300.228 33.3601 297.918 35.309C294.387 38.2629 290.084 40.1438 285.518 40.7291C285.968 38.9091 286.408 37.0791 286.848 35.2591C288.509 35.0511 290.126 34.5784 291.638 33.8591C292.148 33.6091 299.338 30.009 300.638 22.059C301.085 19.0235 300.637 15.9234 299.348 13.1391C298.236 10.6837 296.54 8.53792 294.408 6.88906C293.437 6.18868 292.355 5.65783 291.208 5.31905C288.405 4.57004 285.426 4.8687 282.828 6.15905L278.378 3.37905Z" fill="#84ECD9" stroke="#1D1D1B" stroke-miterlimit="10"/>
    <path d="M252.158 4.31905C252.158 4.31905 276.458 5.31905 281.088 4.31905C285.718 3.31905 250.918 2.83905 252.158 4.31905Z" fill="#84ECD9" stroke="#1D1D1B" stroke-miterlimit="10"/>
    <path d="M276.328 48.439C280.132 47.2869 283.412 44.8384 285.598 41.519C286.529 39.9364 287.179 38.204 287.518 36.399C290.388 23.819 285.518 12.059 284.158 9.15903C283.407 7.47793 282.566 5.83885 281.638 4.24902C278.908 4.39902 276.118 4.51902 273.268 4.58902C268.018 4.69902 260.638 4.69902 252.098 4.24902C252.098 4.24902 243.438 14.059 246.788 36.249C246.788 36.249 248.978 47.249 257.638 48.489L276.328 48.439Z" fill="#84ECD9" stroke="#1D1D1B" stroke-miterlimit="10"/>
    <path d="M378.072 46.2H355.812V48.49H378.072V46.2Z" fill="#062343" stroke="#1D1D1B" stroke-miterlimit="10"/>
    <path d="M388.252 4.21007H399.252C400.369 4.15498 401.475 4.46054 402.406 5.08171C403.337 5.70288 404.044 6.60677 404.422 7.66005V27.5C404.422 27.5 403.842 32.3201 397.882 32.5501C391.922 32.7801 386.532 32.5501 386.532 32.5501V29.5501L397.302 29.66C397.302 29.66 401.202 29.1901 401.092 26.0401L401.202 9.82005C401.202 9.82005 401.552 6.49007 399.142 6.49007C396.732 6.49007 388.212 6.37004 388.212 6.37004L388.252 4.21007Z" fill="#062343" stroke="#1D1D1B" stroke-miterlimit="10"/>
    <path d="M345.721 1C345.721 1 385.992 1.46 388.172 1C388.172 1 389.542 40 381.172 46.2H353.441C353.441 46.2 343.651 44.94 345.721 1Z" fill="#062343" stroke="#1D1D1B" stroke-miterlimit="10"/>
    <path d="M444.549 5.54161C444.549 5.54161 472.439 8.83161 488.469 5.54161C488.469 5.54161 490.889 2.6816 486.059 2.9016C481.229 3.1216 441.909 2.46161 444.549 5.54161Z" fill="#3D2A00" stroke="#1D1D1B" stroke-miterlimit="10"/>
    <path d="M505.159 10.6616C501.529 4.0116 489.079 7.00159 489.079 7.00159C485.409 11.0016 486.969 38.3716 486.969 38.3716C494.499 39.5016 498.509 37.4916 498.509 37.4916C512.929 30.8416 508.789 17.3016 505.159 10.6616ZM496.599 33.2116C496.599 33.2116 491.439 34.5316 489.079 30.8016C486.719 27.0716 489.079 14.9816 489.079 14.9816C489.079 14.9816 495.719 8.1716 501.209 12.7916C506.699 17.4116 507.579 29.9216 496.599 33.2116Z" fill="#704D00" stroke="#1D1D1B" stroke-miterlimit="10"/>
    <path d="M444.549 5.54163V41.7516C444.549 41.7516 459.959 52.6616 489.079 41.7516V4.15161C489.079 4.15161 465.819 9.33163 444.549 5.54163Z" fill="#704D00" stroke="#1D1D1B" stroke-miterlimit="10"/>
    <path d="M550.077 1.76508H550.917C562.697 2.08508 584.487 3.12509 596.287 1.61509C596.717 1.61509 597.217 1.49507 597.207 1.41507C597.207 0.695075 549.437 1.10508 549.427 1.63508C549.427 1.70508 549.797 1.74508 550.077 1.76508Z" fill="#6A6A6A" stroke="#1D1D1B" stroke-miterlimit="10"/>
    <path d="M558.737 47.075C558.737 47.075 569.487 50.195 584.047 47.075L582.657 41.795H561.157L558.737 47.075Z" fill="#704D00" stroke="#1D1D1B" stroke-miterlimit="10"/>
    <path d="M610.677 7.57504C610.677 7.57504 607.847 1.00503 596.767 7.25503L582.657 40.915C582.657 40.915 586.217 39.585 595.977 31.605C605.737 23.625 615.897 17.945 610.677 7.57504ZM606.137 18.465C600.987 26.255 590.957 30.115 590.957 30.115C590.957 30.115 596.157 21.065 596.377 13.755C596.597 6.44503 604.787 8.02505 604.787 8.02505C604.787 8.02505 611.287 10.665 606.137 18.465Z" fill="#704D00" stroke="#1D1D1B" stroke-miterlimit="10"/>
    <path d="M549.367 1.99512C549.367 1.99512 544.237 24.7051 561.157 42.2951H582.657C582.657 42.2951 594.547 23.4751 597.127 1.99512C597.127 1.99512 557.167 3.44512 549.367 1.99512Z" fill="white" stroke="#1D1D1B" stroke-miterlimit="10"/>
    <path d="M706.635 25.0478C706.635 25.0478 706.875 14.0478 701.635 9.24777C696.395 4.44777 689.365 7.32777 689.345 7.33777V3.01776C677.695 4.17776 652.165 2.71777 652.165 2.71777L652.095 46.3578C678.665 50.0178 689.035 46.3578 689.035 46.3578V40.8378C692.235 41.8343 695.614 42.1176 698.935 41.6678C707.925 38.7978 706.635 25.0478 706.635 25.0478ZM703.045 30.0478C702.762 31.7377 702.303 33.3934 701.675 34.9878C701.083 36.206 700.144 37.2219 698.975 37.9078C697.474 38.6369 695.789 38.9049 694.135 38.6778C692.427 38.6081 690.739 38.2707 689.135 37.6778L689.315 12.5478C690.22 11.2937 691.574 10.4375 693.095 10.1578C694.835 10.0547 696.55 10.6037 697.905 11.6978C703.005 15.2978 703.325 23.0578 703.365 24.5678C703.463 26.3874 703.356 28.2122 703.045 30.0078V30.0478Z" fill="#7CB5F3" stroke="#1D1D1B" stroke-miterlimit="10"/>
    <path d="M688.635 2.78785C695.635 1.94785 650.095 0.677817 652.255 2.25782C652.255 2.25782 681.665 3.63785 688.635 2.78785Z" fill="#7CB5F3" stroke="#1D1D1B" stroke-miterlimit="10"/>
    <path d="M40.1271 69.0316C40.1271 69.0316 68.0171 72.3216 84.0471 69.0316C84.0471 69.0316 86.4671 66.1716 81.6371 66.3916C76.8071 66.6116 37.4871 65.9516 40.1271 69.0316Z" fill="#062343" stroke="#1D1D1B" stroke-miterlimit="10"/>
    <path d="M100.737 74.1516C97.1072 67.5016 84.6572 70.4916 84.6572 70.4916C80.9872 74.4916 82.5472 101.862 82.5472 101.862C90.0772 102.992 94.0872 100.982 94.0872 100.982C108.507 94.3316 104.367 80.7916 100.737 74.1516ZM92.1771 96.7016C92.1771 96.7016 87.0172 98.0216 84.6572 94.2916C82.2972 90.5616 84.6572 78.4716 84.6572 78.4716C84.6572 78.4716 91.2971 71.6617 96.7871 76.2817C102.277 80.9017 103.157 93.4116 92.1771 96.7016Z" fill="#2C88EC" stroke="#1D1D1B" stroke-miterlimit="10"/>
    <path d="M40.127 69.0316V105.242C40.127 105.242 55.537 116.152 84.657 105.242V67.6416C84.657 67.6416 61.397 72.8216 40.127 69.0316Z" fill="#2C88EC" stroke="#1D1D1B" stroke-miterlimit="10"/>
    <path d="M198.754 88.5379C198.754 88.5379 198.994 77.5379 193.754 72.7379C188.514 67.9379 181.484 70.8179 181.464 70.8279V66.5079C169.814 67.6679 144.284 66.2079 144.284 66.2079L144.214 109.848C170.784 113.508 181.154 109.848 181.154 109.848V104.328C184.354 105.324 187.733 105.608 191.054 105.158C200.044 102.288 198.754 88.5379 198.754 88.5379ZM195.164 93.5379C194.882 95.2279 194.422 96.8836 193.794 98.4779C193.202 99.6961 192.263 100.712 191.094 101.398C189.593 102.127 187.908 102.395 186.254 102.168C184.546 102.098 182.859 101.761 181.254 101.168L181.434 76.0379C182.339 74.7838 183.694 73.9277 185.214 73.6479C186.954 73.5448 188.669 74.0939 190.024 75.1879C195.124 78.7879 195.444 86.5479 195.484 88.0579C195.582 89.8775 195.475 91.7023 195.164 93.4979V93.5379Z" fill="#1AA58C" stroke="#1D1D1B" stroke-miterlimit="10"/>
    <path d="M180.754 66.2779C187.754 65.4379 142.214 64.1679 144.374 65.7479C144.374 65.7479 173.784 67.1279 180.754 66.2779Z" fill="#1AA58C" stroke="#1D1D1B" stroke-miterlimit="10"/>
    <path d="M295.056 73.14C290.056 70.36 282.386 75.45 282.386 75.45L283.386 103.68C287.216 101.68 285.706 98.68 292.326 94.62C294.267 93.4424 295.898 91.8177 297.082 89.8815C298.267 87.9453 298.971 85.7538 299.136 83.49C299.136 83.49 300.056 75.93 295.056 73.14ZM285.966 95.78L283.436 83.59L285.966 81.73C285.966 81.73 288.776 73.61 292.966 77.32C297.156 81.03 295.256 91.37 285.996 95.78H285.966Z" fill="#FFB717" stroke="#1D1D1B" stroke-miterlimit="10"/>
    <path d="M242.837 66.99H282.307C282.307 66.99 283.817 68.5 281.497 69.89C281.497 69.89 279.987 70.24 281.957 74.42C283.927 78.6 292.407 100.31 276.617 109.48H246.197C243.669 107.352 241.686 104.651 240.415 101.602C239.143 98.5524 238.619 95.2431 238.887 91.95C239.538 85.178 241.386 78.5754 244.347 72.45C244.347 72.45 245.347 70.36 243.877 69.89C242.407 69.42 242.837 66.99 242.837 66.99Z" fill="#FFB717" stroke="#1D1D1B" stroke-miterlimit="10"/>
    <path d="M371.563 66.8691C372.313 66.4491 380.223 62.1991 388.453 66.1791C397.203 70.4091 398.393 80.1191 398.523 81.3591C398.876 84.9367 398.258 88.5432 396.733 91.7991C395.325 94.4733 393.413 96.8502 391.103 98.7991C387.573 101.753 383.27 103.634 378.703 104.219C379.153 102.399 379.593 100.569 380.033 98.7491C381.695 98.5411 383.312 98.0685 384.823 97.3491C385.333 97.0991 392.523 93.4991 393.823 85.5491C394.271 82.5136 393.823 79.4135 392.533 76.6291C391.422 74.1738 389.726 72.028 387.593 70.3791C386.623 69.6787 385.541 69.1479 384.393 68.8091C381.591 68.0601 378.611 68.3587 376.013 69.6491L371.563 66.8691Z" fill="#DAEAFC" stroke="#1D1D1B" stroke-miterlimit="10"/>
    <path d="M345.343 67.8091C345.343 67.8091 369.643 68.8091 374.273 67.8091C378.903 66.8091 344.103 66.3291 345.343 67.8091Z" fill="#DAEAFC" stroke="#1D1D1B" stroke-miterlimit="10"/>
    <path d="M369.513 111.929C373.317 110.777 376.597 108.329 378.783 105.009C379.715 103.426 380.365 101.694 380.703 99.8891C383.573 87.3091 378.703 75.5491 377.343 72.6491C376.593 70.968 375.752 69.329 374.823 67.7391C372.093 67.8891 369.303 68.0091 366.453 68.0791C361.203 68.1891 353.823 68.1891 345.283 67.7391C345.283 67.7391 336.623 77.5491 339.973 99.7391C339.973 99.7391 342.163 110.739 350.823 111.979L369.513 111.929Z" fill="#DAEAFC" stroke="#1D1D1B" stroke-miterlimit="10"/>
    <path d="M445.571 72.8856C451.261 73.0056 485.171 73.6756 491.481 71.6956C491.931 71.5556 493.011 71.2156 492.981 70.9156C492.891 70.1156 438.981 71.9156 438.981 72.5856C438.981 72.7256 440.131 72.8656 445.571 72.8856Z" fill="#704D00" stroke="#1D1D1B" stroke-miterlimit="10"/>
    <path d="M484.881 90.4256C484.881 90.4256 487.971 90.4256 489.291 90.4256C490.611 90.4256 487.211 93.8856 489.291 94.8756C491.371 95.8656 508.881 79.8756 503.081 74.5156C497.281 69.1556 486.991 75.5156 486.991 75.5156C486.991 75.5156 485.991 82.0756 489.291 81.5156C492.591 80.9556 493.451 73.8556 497.931 76.5156C502.411 79.1756 495.931 89.4356 489.621 86.8056C483.311 84.1756 484.881 90.4256 484.881 90.4256Z" fill="#FFF2D6" stroke="#1D1D1B" stroke-miterlimit="10"/>
    <path d="M452.981 100.066C455.041 100.336 457.981 100.646 461.461 100.786C467.931 101.046 471.161 101.176 474.461 100.066C478.843 98.4841 482.588 95.514 485.126 91.6075C487.664 87.701 488.856 83.0721 488.521 78.4256C488.323 78.0405 488.219 77.6137 488.219 77.1806C488.219 76.7475 488.323 76.3207 488.521 75.9356C488.721 75.6356 488.791 75.2456 490.161 74.8656C491.012 74.6357 491.773 74.1506 492.341 73.4756C492.772 72.8794 492.974 72.1484 492.911 71.4156C489.431 71.9256 484.491 72.5356 478.531 72.8756C473.291 73.1656 469.391 73.1356 464.741 73.0756C457.851 72.9756 449.141 72.8256 438.941 72.5656C438.72 72.8737 438.607 73.2466 438.621 73.6256C438.621 74.2056 439.041 74.9456 440.421 75.6256C443.261 77.0456 441.891 78.9056 441.891 78.9056L441.681 82.9056C441.618 84.7034 441.844 86.4996 442.351 88.2256C444.551 95.6656 451.221 99.1956 452.981 100.066Z" fill="#FFD370" stroke="#1D1D1B" stroke-miterlimit="10"/>
    <path d="M445.051 96.5556C445.051 96.5556 443.951 92.0756 447.241 92.8356C450.531 93.5956 454.681 100.276 451.611 103.016L451.501 104.766H445.311C445.161 104.606 444.111 103.426 444.491 102.376C444.59 102.126 444.739 101.899 444.928 101.709C445.117 101.518 445.342 101.367 445.591 101.266L447.891 100.066C447.196 99.7153 446.583 99.2212 446.093 98.616C445.603 98.0109 445.248 97.3086 445.051 96.5556Z" fill="#FFF2D6" stroke="#1D1D1B" stroke-miterlimit="10"/>
    <path d="M474.381 105.756H479.851C479.851 105.756 482.371 103.016 477.771 102.146C477.771 102.146 484.011 95.3556 479.771 94.5856C475.531 93.8156 471.021 97.2956 471.231 98.7556C471.441 100.216 472.301 105.206 474.381 105.756Z" fill="#FFF2D6" stroke="#1D1D1B" stroke-miterlimit="10"/>
    <path d="M576.89 109.69H554.63V111.98H576.89V109.69Z" fill="#062343" stroke="#1D1D1B" stroke-miterlimit="10"/>
    <path d="M587.07 67.7001H598.07C599.188 67.645 600.294 67.9505 601.225 68.5717C602.156 69.1929 602.862 70.0968 603.24 71.15V90.99C603.24 90.99 602.66 95.8101 596.7 96.0401C590.74 96.2701 585.35 96.0401 585.35 96.0401V93.0401L596.12 93.15C596.12 93.15 600.02 92.68 599.91 89.53L600.02 73.31C600.02 73.31 600.37 69.9801 597.96 69.9801C595.55 69.9801 587.03 69.86 587.03 69.86L587.07 67.7001Z" fill="#062343" stroke="#1D1D1B" stroke-miterlimit="10"/>
    <path d="M544.54 64.49C544.54 64.49 584.81 64.95 586.99 64.49C586.99 64.49 588.36 103.49 579.99 109.69H552.26C552.26 109.69 542.47 108.43 544.54 64.49Z" fill="#DAEAFC" stroke="#1D1D1B" stroke-miterlimit="10"/>
    <path d="M644.681 65.2551H645.521C657.301 65.5751 679.091 66.6151 690.891 65.1051C691.321 65.1051 691.821 64.9851 691.811 64.9051C691.811 64.1851 644.041 64.5951 644.031 65.1251C644.031 65.1951 644.401 65.2351 644.681 65.2551Z" fill="#6A6A6A" stroke="#1D1D1B" stroke-miterlimit="10"/>
    <path d="M653.341 110.565C653.341 110.565 664.091 113.685 678.651 110.565L677.261 105.285H655.761L653.341 110.565Z" fill="black" stroke="#1D1D1B" stroke-miterlimit="10"/>
    <path d="M705.281 71.065C705.281 71.065 702.451 64.495 691.371 70.745L677.261 104.405C677.261 104.405 680.821 103.075 690.581 95.095C700.341 87.115 710.501 81.435 705.281 71.065ZM700.741 81.955C695.591 89.745 685.561 93.605 685.561 93.605C685.561 93.605 690.761 84.555 690.981 77.245C691.201 69.935 699.391 71.515 699.391 71.515C699.391 71.515 705.891 74.155 700.741 81.955Z" fill="black" stroke="#1D1D1B" stroke-miterlimit="10"/>
    <path d="M643.971 65.485C643.971 65.485 638.841 88.195 655.761 105.785H677.261C677.261 105.785 689.151 86.965 691.731 65.485C691.731 65.485 651.771 66.935 643.971 65.485Z" fill="white" stroke="#1D1D1B" stroke-miterlimit="10"/>
    <path d="M41.441 128.745H42.281C54.061 129.065 75.851 130.105 87.651 128.595C88.081 128.595 88.581 128.475 88.571 128.395C88.571 127.675 40.801 128.085 40.791 128.615C40.791 128.685 41.161 128.725 41.441 128.745Z" fill="#704D00" stroke="#1D1D1B" stroke-miterlimit="10"/>
    <path d="M50.1006 174.055C50.1006 174.055 60.8506 177.175 75.4106 174.055L74.0206 168.775H52.5206L50.1006 174.055Z" fill="#FFB717" stroke="#1D1D1B" stroke-miterlimit="10"/>
    <path d="M102.041 134.555C102.041 134.555 99.211 127.985 88.131 134.235L74.021 167.895C74.021 167.895 77.581 166.565 87.341 158.585C97.101 150.605 107.261 144.925 102.041 134.555ZM97.501 145.445C92.351 153.235 82.321 157.095 82.321 157.095C82.321 157.095 87.521 148.045 87.741 140.735C87.961 133.425 96.151 135.005 96.151 135.005C96.151 135.005 102.651 137.645 97.501 145.445Z" fill="#FFB717" stroke="#1D1D1B" stroke-miterlimit="10"/>
    <path d="M40.731 128.975C40.731 128.975 35.601 151.685 52.521 169.275H74.021C74.021 169.275 85.911 150.455 88.491 128.975C88.491 128.975 48.531 130.425 40.731 128.975Z" fill="#FFD370" stroke="#1D1D1B" stroke-miterlimit="10"/>
    <path d="M199.697 136.63C194.697 133.85 187.027 138.94 187.027 138.94L188.027 167.17C191.857 165.17 190.347 162.17 196.967 158.11C198.908 156.932 200.538 155.308 201.723 153.372C202.908 151.435 203.612 149.244 203.777 146.98C203.777 146.98 204.697 139.42 199.697 136.63ZM190.607 159.27L188.077 147.08L190.607 145.22C190.607 145.22 193.417 137.1 197.607 140.81C201.797 144.52 199.897 154.86 190.637 159.27H190.607Z" fill="#062343" stroke="#1D1D1B" stroke-miterlimit="10"/>
    <path d="M147.477 130.48H186.947C186.947 130.48 188.457 131.99 186.137 133.38C186.137 133.38 184.627 133.73 186.597 137.91C188.567 142.09 197.047 163.8 181.257 172.97H150.837C148.309 170.843 146.327 168.141 145.055 165.092C143.784 162.042 143.26 158.733 143.527 155.44C144.178 148.668 146.027 142.065 148.987 135.94C148.987 135.94 149.987 133.85 148.517 133.38C147.047 132.91 147.477 130.48 147.477 130.48Z" fill="#062343" stroke="#1D1D1B" stroke-miterlimit="10"/>
    <path d="M276.204 130.359C276.954 129.939 284.864 125.689 293.094 129.669C301.844 133.899 303.034 143.609 303.164 144.849C303.516 148.427 302.898 152.033 301.374 155.289C299.966 157.963 298.054 160.34 295.744 162.289C292.213 165.243 287.91 167.124 283.344 167.709C283.794 165.889 284.234 164.059 284.674 162.239C286.335 162.031 287.952 161.558 289.464 160.839C289.974 160.589 297.164 156.989 298.464 149.039C298.911 146.004 298.463 142.903 297.174 140.119C296.062 137.664 294.366 135.518 292.234 133.869C291.264 133.169 290.182 132.638 289.034 132.299C286.231 131.55 283.252 131.849 280.654 133.139L276.204 130.359Z" fill="white" stroke="#1D1D1B" stroke-miterlimit="10"/>
    <path d="M249.984 131.299C249.984 131.299 274.284 132.299 278.914 131.299C283.544 130.299 248.744 129.819 249.984 131.299Z" fill="white" stroke="#1D1D1B" stroke-miterlimit="10"/>
    <path d="M274.154 175.419C277.958 174.267 281.238 171.819 283.424 168.499C284.356 166.916 285.005 165.184 285.344 163.379C288.214 150.799 283.344 139.039 281.984 136.139C281.234 134.458 280.392 132.819 279.464 131.229C276.734 131.379 273.944 131.499 271.094 131.569C265.844 131.679 258.464 131.679 249.924 131.229C249.924 131.229 241.264 141.039 244.614 163.229C244.614 163.229 246.804 174.229 255.464 175.469L274.154 175.419Z" fill="white" stroke="#1D1D1B" stroke-miterlimit="10"/>
    <path d="M375.898 173.18H353.638V175.47H375.898V173.18Z" fill="#704D00" stroke="#1D1D1B" stroke-miterlimit="10"/>
    <path d="M386.078 131.19H397.078C398.196 131.135 399.302 131.441 400.232 132.062C401.163 132.683 401.87 133.587 402.248 134.64V154.48C402.248 154.48 401.668 159.3 395.708 159.53C389.748 159.76 384.358 159.53 384.358 159.53V156.53L395.128 156.64C395.128 156.64 399.028 156.17 398.918 153.02L399.028 136.8C399.028 136.8 399.378 133.47 396.968 133.47C394.558 133.47 386.038 133.35 386.038 133.35L386.078 131.19Z" fill="#704D00" stroke="#1D1D1B" stroke-miterlimit="10"/>
    <path d="M343.548 127.98C343.548 127.98 383.818 128.44 385.998 127.98C385.998 127.98 387.368 166.98 378.998 173.18H351.268C351.268 173.18 341.478 171.92 343.548 127.98Z" fill="#704D00" stroke="#1D1D1B" stroke-miterlimit="10"/>
    <path d="M496.788 152.028C496.788 152.028 497.028 141.028 491.788 136.228C486.548 131.428 479.518 134.308 479.498 134.318V129.998C467.848 131.158 442.318 129.698 442.318 129.698L442.248 173.338C468.818 176.998 479.188 173.338 479.188 173.338V167.818C482.388 168.814 485.767 169.098 489.088 168.648C498.078 165.778 496.788 152.028 496.788 152.028ZM493.198 157.028C492.915 158.718 492.456 160.374 491.828 161.968C491.236 163.186 490.296 164.202 489.128 164.888C487.626 165.617 485.942 165.885 484.288 165.658C482.579 165.588 480.892 165.251 479.288 164.658L479.468 139.528C480.373 138.274 481.727 137.418 483.248 137.138C484.987 137.035 486.702 137.584 488.058 138.678C493.158 142.278 493.478 150.038 493.518 151.548C493.616 153.367 493.508 155.192 493.198 156.988V157.028Z" fill="#062343" stroke="#1D1D1B" stroke-miterlimit="10"/>
    <path d="M478.788 129.768C485.788 128.928 440.248 127.658 442.408 129.238C442.408 129.238 471.818 130.618 478.788 129.768Z" fill="#062343" stroke="#1D1D1B" stroke-miterlimit="10"/>
    <path d="M536.979 132.522C536.979 132.522 564.869 135.812 580.899 132.522C580.899 132.522 583.319 129.662 578.489 129.882C573.659 130.102 534.339 129.442 536.979 132.522Z" fill="#704D00" stroke="#1D1D1B" stroke-miterlimit="10"/>
    <path d="M597.589 137.642C593.959 130.992 581.509 133.982 581.509 133.982C577.839 137.982 579.399 165.352 579.399 165.352C586.929 166.482 590.939 164.472 590.939 164.472C605.359 157.822 601.219 144.282 597.589 137.642ZM589.029 160.192C589.029 160.192 583.869 161.512 581.509 157.782C579.149 154.052 581.509 141.962 581.509 141.962C581.509 141.962 588.149 135.152 593.639 139.772C599.129 144.392 600.009 156.902 589.029 160.192Z" fill="#FFB717" stroke="#1D1D1B" stroke-miterlimit="10"/>
    <path d="M536.979 132.522V168.732C536.979 168.732 552.389 179.642 581.509 168.732V131.132C581.509 131.132 558.249 136.312 536.979 132.522Z" fill="#FFB717" stroke="#1D1D1B" stroke-miterlimit="10"/>
    <path d="M648.017 136.376C653.707 136.496 687.617 137.166 693.927 135.186C694.377 135.046 695.457 134.706 695.427 134.406C695.337 133.606 641.427 135.406 641.427 136.076C641.427 136.216 642.577 136.356 648.017 136.376Z" fill="#0F6152" stroke="#1D1D1B" stroke-miterlimit="10"/>
    <path d="M687.328 153.916C687.328 153.916 690.418 153.916 691.738 153.916C693.058 153.916 689.658 157.376 691.738 158.366C693.818 159.356 711.328 143.366 705.528 138.006C699.728 132.646 689.438 139.006 689.438 139.006C689.438 139.006 688.438 145.566 691.738 145.006C695.038 144.446 695.898 137.346 700.378 140.006C704.858 142.666 698.378 152.926 692.068 150.296C685.758 147.666 687.328 153.916 687.328 153.916Z" fill="#DCF9F4" stroke="#1D1D1B" stroke-miterlimit="10"/>
    <path d="M655.428 163.556C657.488 163.826 660.428 164.136 663.908 164.276C670.378 164.536 673.608 164.666 676.908 163.556C681.29 161.974 685.035 159.004 687.573 155.098C690.111 151.191 691.303 146.562 690.968 141.916C690.77 141.531 690.666 141.104 690.666 140.671C690.666 140.237 690.77 139.811 690.968 139.426C691.168 139.126 691.238 138.736 692.608 138.356C693.459 138.126 694.22 137.641 694.788 136.966C695.218 136.369 695.421 135.638 695.358 134.906C691.878 135.416 686.938 136.026 680.978 136.366C675.738 136.656 671.838 136.626 667.188 136.566C660.298 136.466 651.588 136.316 641.388 136.056C641.167 136.364 641.054 136.737 641.068 137.116C641.068 137.696 641.488 138.436 642.868 139.116C645.708 140.536 644.338 142.396 644.338 142.396L644.128 146.396C644.065 148.193 644.291 149.99 644.798 151.716C646.998 159.156 653.668 162.686 655.428 163.556Z" fill="#1AA58C" stroke="#1D1D1B" stroke-miterlimit="10"/>
    <path d="M647.498 160.046C647.498 160.046 646.398 155.566 649.688 156.326C652.978 157.086 657.128 163.766 654.058 166.506L653.948 168.256H647.758C647.608 168.096 646.558 166.916 646.938 165.866C647.037 165.616 647.186 165.389 647.375 165.199C647.564 165.008 647.789 164.857 648.038 164.756L650.338 163.556C649.642 163.205 649.03 162.711 648.54 162.106C648.05 161.501 647.695 160.799 647.498 160.046Z" fill="#DCF9F4" stroke="#1D1D1B" stroke-miterlimit="10"/>
    <path d="M676.828 169.246H682.298C682.298 169.246 684.818 166.506 680.218 165.636C680.218 165.636 686.458 158.846 682.218 158.076C677.978 157.306 673.468 160.786 673.678 162.246C673.888 163.706 674.748 168.696 676.828 169.246Z" fill="#DCF9F4" stroke="#1D1D1B" stroke-miterlimit="10"/>
</svg>

